<svg width="52" height="52" viewBox="0 0 52 52" fill="none" xmlns="http://www.w3.org/2000/svg">
<path d="M2.15234 32.9316H3.25034V39.2913H2.15234V32.9316Z" fill="white"/>
<path d="M2.15234 30.5273H3.25034V31.7444H2.15234V30.5273Z" fill="#3ED3B5"/>
<path d="M4.88184 32.901H5.90784V33.8078C6.21184 33.4339 6.53383 33.1655 6.87384 33.0024C7.21384 32.8393 7.59183 32.7578 8.00784 32.7578C8.91984 32.7578 9.53584 33.074 9.85584 33.7064C10.0318 34.0524 10.1198 34.5476 10.1198 35.1919V39.2905H9.02184V35.2635C9.02184 34.8737 8.96384 34.5595 8.84784 34.3209C8.65584 33.9232 8.30784 33.7243 7.80384 33.7243C7.54783 33.7243 7.33784 33.7501 7.17384 33.8018C6.87783 33.8893 6.61784 34.0643 6.39384 34.3268C6.21384 34.5376 6.09684 34.7554 6.04284 34.9801C5.98884 35.2048 5.96184 35.526 5.96184 35.9436V39.2905H4.88184V32.901Z" fill="white"/>
<path d="M11.9325 31.1172H13.0245V32.901H14.0505V33.778H13.0245V37.9482C13.0245 38.1709 13.1005 38.32 13.2525 38.3956C13.3365 38.4393 13.4765 38.4612 13.6725 38.4612C13.7245 38.4612 13.7805 38.4602 13.8405 38.4582C13.9005 38.4562 13.9705 38.4513 14.0505 38.4433V39.2905C13.9265 39.3263 13.7975 39.3521 13.6635 39.368C13.5295 39.3839 13.3845 39.3919 13.2285 39.3919C12.7245 39.3919 12.3825 39.2636 12.2025 39.0071C12.0225 38.7506 11.9325 38.4175 11.9325 38.0078V33.778H11.0625V32.901H11.9325V31.1172Z" fill="white"/>
<path d="M16.2104 32.9014V37.1431C16.2104 37.4693 16.2624 37.7357 16.3664 37.9426C16.5584 38.3244 16.9164 38.5153 17.4404 38.5153C18.1924 38.5153 18.7044 38.1812 18.9764 37.513C19.1244 37.1551 19.1984 36.6639 19.1984 36.0394V32.9014H20.2784V39.2909H19.2584L19.2704 38.3482C19.1304 38.5909 18.9564 38.7957 18.7484 38.9627C18.3364 39.2968 17.8364 39.4639 17.2484 39.4639C16.3324 39.4639 15.7084 39.1596 15.3764 38.5511C15.1964 38.2249 15.1064 37.7894 15.1064 37.2446V32.9014H16.2104Z" fill="white"/>
<path d="M21.9639 32.9316H23.0619V39.2913H21.9639V32.9316Z" fill="white"/>
<path d="M21.9639 30.5273H23.0619V31.7444H21.9639V30.5273Z" fill="#FE2260"/>
<path d="M24.91 31.1172H26.002V32.901H27.028V33.778H26.002V37.9482C26.002 38.1709 26.078 38.32 26.23 38.3956C26.314 38.4393 26.454 38.4612 26.65 38.4612C26.702 38.4612 26.758 38.4602 26.818 38.4582C26.878 38.4562 26.948 38.4513 27.028 38.4433V39.2905C26.904 39.3263 26.775 39.3521 26.641 39.368C26.507 39.3839 26.362 39.3919 26.206 39.3919C25.702 39.3919 25.36 39.2636 25.18 39.0071C25 38.7506 24.91 38.4175 24.91 38.0078V33.778H24.04V32.901H24.91V31.1172Z" fill="white"/>
<path d="M28.1084 32.9316H29.2064V39.2913H28.1084V32.9316Z" fill="white"/>
<path d="M28.1084 30.5273H29.2064V31.7444H28.1084V30.5273Z" fill="#7B37DB"/>
<path d="M33.4304 32.7168C34.2584 32.7168 34.9584 32.9912 35.5304 33.5401C36.1024 34.089 36.3884 34.8963 36.3884 35.9623C36.3884 36.9924 36.1364 37.8435 35.6324 38.5157C35.1284 39.1878 34.3464 39.5239 33.2864 39.5239C32.4024 39.5239 31.7004 39.2266 31.1804 38.632C30.6604 38.0374 30.4004 37.239 30.4004 36.2367C30.4004 35.1628 30.6744 34.3077 31.2224 33.6713C31.7704 33.035 32.5064 32.7168 33.4304 32.7168ZM33.4004 33.6534C32.7404 33.6534 32.2604 33.904 31.9604 34.4051C31.6604 34.9063 31.5104 35.5108 31.5104 36.2188C31.5104 36.8989 31.6604 37.4657 31.9604 37.9191C32.2604 38.3725 32.7364 38.5992 33.3884 38.5992C34.1044 38.5992 34.5954 38.3297 34.8614 37.7908C35.1274 37.2519 35.2604 36.6523 35.2604 35.9921C35.2604 35.3955 35.1644 34.9103 34.9724 34.5364C34.6684 33.9478 34.1444 33.6534 33.4004 33.6534Z" fill="white"/>
<path d="M2.18164 41.6758H3.26164V50.4397H2.18164V41.6758Z" fill="white"/>
<path d="M7.40203 43.8955C8.15804 43.8955 8.77203 44.0387 9.24403 44.3251C9.71203 44.6114 9.94603 45.0569 9.94603 45.6614V49.3424C9.94603 49.4537 9.96903 49.5432 10.015 49.6109C10.061 49.6785 10.158 49.7123 10.306 49.7123C10.354 49.7123 10.408 49.7093 10.468 49.7033C10.528 49.6974 10.592 49.6884 10.66 49.6765V50.4699C10.492 50.5177 10.364 50.5475 10.276 50.5594C10.188 50.5714 10.068 50.5773 9.91603 50.5773C9.54403 50.5773 9.27403 50.4461 9.10603 50.1836C9.01803 50.0444 8.95603 49.8475 8.92003 49.593C8.70003 49.8793 8.38403 50.1279 7.97203 50.3387C7.56003 50.5495 7.10603 50.6549 6.61003 50.6549C6.01403 50.6549 5.52703 50.4749 5.14903 50.115C4.77103 49.755 4.58203 49.3046 4.58203 48.7637C4.58203 48.1711 4.76803 47.7117 5.14003 47.3856C5.51203 47.0594 6.00003 46.8586 6.60403 46.783L8.32603 46.5682C8.57403 46.5364 8.74003 46.433 8.82403 46.258C8.87203 46.1626 8.89603 46.0253 8.89603 45.8464C8.89603 45.4804 8.76503 45.215 8.50303 45.0499C8.24103 44.8849 7.86603 44.8023 7.37803 44.8023C6.81403 44.8023 6.41403 44.9535 6.17803 45.2557C6.04603 45.4228 5.96003 45.6714 5.92003 46.0015H4.91203C4.93203 45.214 5.18903 44.6661 5.68303 44.3579C6.17703 44.0496 6.75003 43.8955 7.40203 43.8955ZM8.86603 47.1887C8.73403 47.2722 8.56403 47.3418 8.35603 47.3975C8.14803 47.4532 7.94403 47.493 7.74403 47.5168L7.09003 47.6003C6.69803 47.652 6.40403 47.7336 6.20803 47.8449C5.87603 48.0319 5.71003 48.3302 5.71003 48.7398C5.71003 49.0501 5.82403 49.2947 6.05203 49.4736C6.28003 49.6526 6.55003 49.7421 6.86203 49.7421C7.24203 49.7421 7.61003 49.6546 7.96603 49.4796C8.56603 49.1893 8.86603 48.714 8.86603 48.0537V47.1887Z" fill="white"/>
<path d="M12.6818 41.6465V44.8263C12.9178 44.5201 13.1998 44.2864 13.5278 44.1253C13.8558 43.9642 14.2118 43.8837 14.5958 43.8837C15.3958 43.8837 16.0448 44.1571 16.5428 44.704C17.0408 45.2509 17.2898 46.0573 17.2898 47.1232C17.2898 48.1334 17.0438 48.9726 16.5518 49.6408C16.0598 50.309 15.3778 50.6431 14.5058 50.6431C14.0178 50.6431 13.6058 50.5257 13.2698 50.2911C13.0698 50.1519 12.8558 49.9292 12.6278 49.6229V50.4402H11.6318V41.6465H12.6818ZM14.4698 44.8442C13.9778 44.8442 13.5468 45.0252 13.1768 45.3871C12.8068 45.749 12.6218 46.3456 12.6218 47.1769C12.6218 47.7775 12.6978 48.2647 12.8498 48.6385C13.1338 49.3425 13.6638 49.6945 14.4398 49.6945C15.0238 49.6945 15.4608 49.4638 15.7508 49.0025C16.0408 48.5411 16.1858 47.9326 16.1858 47.1769C16.1858 46.5047 16.0408 45.9479 15.7508 45.5064C15.4608 45.0649 15.0338 44.8442 14.4698 44.8442Z" fill="white"/>
<path d="M19.1923 48.4358C19.2243 48.7937 19.3143 49.0682 19.4623 49.2591C19.7343 49.6051 20.2063 49.7781 20.8783 49.7781C21.2783 49.7781 21.6303 49.6916 21.9343 49.5186C22.2383 49.3456 22.3903 49.0781 22.3903 48.7162C22.3903 48.4417 22.2683 48.2329 22.0243 48.0898C21.8683 48.0023 21.5603 47.9008 21.1003 47.7855L20.2423 47.5707C19.6943 47.4355 19.2903 47.2844 19.0303 47.1173C18.5663 46.827 18.3343 46.4253 18.3343 45.9122C18.3343 45.3076 18.5533 44.8184 18.9913 44.4446C19.4293 44.0707 20.0183 43.8838 20.7583 43.8838C21.7263 43.8838 22.4243 44.1662 22.8523 44.7309C23.1203 45.0889 23.2503 45.4747 23.2423 45.8883H22.2223C22.2023 45.6457 22.1163 45.425 21.9643 45.2261C21.7163 44.9437 21.2863 44.8025 20.6743 44.8025C20.2663 44.8025 19.9573 44.8801 19.7473 45.0352C19.5373 45.1903 19.4323 45.3952 19.4323 45.6497C19.4323 45.9281 19.5703 46.1508 19.8463 46.3179C20.0063 46.4173 20.2423 46.5048 20.5543 46.5804L21.2683 46.7534C22.0443 46.9403 22.5643 47.1213 22.8283 47.2963C23.2483 47.5707 23.4583 48.0022 23.4583 48.5909C23.4583 49.1596 23.2413 49.6508 22.8073 50.0645C22.3733 50.4781 21.7123 50.6849 20.8243 50.6849C19.8683 50.6849 19.1913 50.4692 18.7933 50.0376C18.3953 49.6061 18.1823 49.0721 18.1543 48.4358H19.1923Z" fill="white"/>
<path d="M4.56 4.54545H47.44V47.1818H31.4073V49.7273H50V2H2V26.4223H4.56V4.54545Z" fill="white"/>
</svg>
